<svg xmlns="http://www.w3.org/2000/svg" viewBox="0 0 400 300">
  <!-- 漸層背景 -->
  <defs>
    <linearGradient id="bagGradient" x1="0" y1="0" x2="1" y2="1">
      <stop offset="0%" stop-color="#b9a2a6"/>
      <stop offset="100%" stop-color="#d7c5c8"/>
    </linearGradient>
  </defs>

  <!-- 購物袋 -->
  <rect x="120" y="80" width="160" height="180" rx="20" ry="20" fill="url(#bagGradient)" stroke="#fff" stroke-width="4"/>
  
  <!-- 袋子提把 -->
  <path d="M140 80 Q200 20 260 80" fill="none" stroke="#fff" stroke-width="6"/>
  
  <!-- 袋子裝飾線 -->
  <line x1="160" y1="120" x2="240" y2="120" stroke="#fff" stroke-width="2" opacity="0.8"/>
  <line x1="160" y1="150" x2="240" y2="150" stroke="#fff" stroke-width="2" opacity="0.8"/>
  <line x1="160" y1="180" x2="240" y2="180" stroke="#fff" stroke-width="2" opacity="0.8"/>

  <!-- 星星裝飾 -->
  <circle cx="70" cy="60" r="6" fill="#fff" opacity="0.8"/>
  <circle cx="340" cy="40" r="5" fill="#fff" opacity="0.7"/>
  <circle cx="330" cy="120" r="8" fill="#fff" opacity="0.6"/>
  <circle cx="90" cy="200" r="4" fill="#fff" opacity="0.7"/>
  
  <!-- 愛心裝飾 -->
  <path d="M300 200 
           C300 190, 320 190, 320 200 
           C320 210, 300 215, 300 225 
           C300 215, 280 210, 280 200 
           C280 190, 300 190, 300 200 Z"
        fill="#fff" opacity="0.8"/>
</svg>
